<svg xmlns="http://www.w3.org/2000/svg" version="1.1" xmlns:xlink="http://www.w3.org/1999/xlink" xmlns:svgjs="http://svgjs.dev/svgjs" width="1500" height="1500" viewBox="0 0 1500 1500"><rect width="1500" height="1500" fill="#000000"></rect><g transform="matrix(0.6666666666666666,0,0,0.6666666666666666,249.39393939393938,435.99032258064517)"><svg viewBox="0 0 396 248" data-background-color="#282634" preserveAspectRatio="xMidYMid meet" height="939" width="1500" xmlns="http://www.w3.org/2000/svg" xmlns:xlink="http://www.w3.org/1999/xlink"><g id="tight-bounds" transform="matrix(1,0,0,1,0.2400000000000091,0.4000000000000057)"><svg viewBox="0 0 395.52 247.2" height="247.2" width="395.52"><g><svg></svg></g><g><svg viewBox="0 0 395.52 247.2" height="247.2" width="395.52"><mask id="3ebadc12-c3d3-4407-b51b-1ddfc9667b99"><rect width="395.52" height="247.2" fill="white"></rect><g transform="matrix(1,0,0,1,74.09489955903969,37.08)" id="clone"><svg viewBox="0 0 247.3302008819206 173.04" height="173.04" width="247.3302008819206"><g><svg viewBox="0 0 247.3302008819206 173.04" height="173.04" width="247.3302008819206"><g><svg viewBox="0 0 247.3302008819206 173.04" height="173.04" width="247.3302008819206"><g><svg viewBox="0 0 247.3302008819206 173.04" height="173.04" width="247.3302008819206"><g id="SvgjsG1093"><svg viewBox="0 0 247.3302008819206 173.04" height="173.04" width="247.3302008819206" id="SvgjsSvg1092"><g><svg viewBox="0 0 247.3302008819206 173.04" height="173.04" width="247.3302008819206"><g transform="matrix(1,0,0,1,0,0)"><svg width="247.3302008819206" viewBox="-1.58 -37.86 57.97 40.86" height="173.04" data-palette-color="#ff4057"><path d="M11.72-11.16L10.57 0 4.3 0 1.42-34.86 4.83-34.86 5.76-21.29 6.96-3.13 8.13-3.13 9.35-21.29 10.69-34.62 16.72-34.62 18.14-21.29 19.21-3.13 20.39-3.13 21.63-21.29 22.63-34.86 26-34.86 23.07 0 16.82 0 15.63-11.16 14.38-31.62 13.04-31.62 11.72-11.16ZM39.11-11.16L37.96 0 31.69 0 28.81-34.86 32.22-34.86 33.15-21.29 34.35-3.13 35.52-3.13 36.74-21.29 38.08-34.62 44.11-34.62 45.53-21.29 46.6-3.13 47.78-3.13 49.02-21.29 50.02-34.86 53.39-34.86 50.46 0 44.21 0 43.02-11.16 41.77-31.62 40.43-31.62 39.11-11.16Z" opacity="1" transform="matrix(1,0,0,1,0,0)" fill="black" class="wordmark-text-0" id="SvgjsPath1091" stroke-width="5" stroke="black" stroke-linejoin="round"></path></svg></g></svg></g></svg></g></svg></g><g></g></svg></g></svg></g></svg></g></mask><g mask="url(#3ebadc12-c3d3-4407-b51b-1ddfc9667b99)"><g><path d="M183.65 168.058l-8.154 79.13h-44.458l-20.421-247.176h24.179l6.594 96.218 8.509 128.765h8.296l8.65-128.765 9.502-94.517h42.756l10.068 94.517 7.587 128.765h8.367l8.792-128.765 7.091-96.218h23.895l-20.775 247.176h-44.316l-8.438-79.13-8.863-145.073h-9.502z" fill="#ffffff" fill-rule="nonzero" stroke="none" stroke-width="1" stroke-linecap="butt" stroke-linejoin="miter" stroke-miterlimit="10" stroke-dasharray="" stroke-dashoffset="0" font-family="none" font-weight="none" font-size="none" text-anchor="none" style="mix-blend-mode: normal" data-fill-palette-color="tertiary"></path></g></g><g transform="matrix(1,0,0,1,74.09489955903969,37.08)"><svg viewBox="0 0 247.3302008819206 173.04" height="173.04" width="247.3302008819206"><g><svg viewBox="0 0 247.3302008819206 173.04" height="173.04" width="247.3302008819206"><g><svg viewBox="0 0 247.3302008819206 173.04" height="173.04" width="247.3302008819206"><g><svg viewBox="0 0 247.3302008819206 173.04" height="173.04" width="247.3302008819206"><g id="textblocktransform"><svg viewBox="0 0 247.3302008819206 173.04" height="173.04" width="247.3302008819206" id="textblock"><g><svg viewBox="0 0 247.3302008819206 173.04" height="173.04" width="247.3302008819206"><g transform="matrix(1,0,0,1,0,0)"><svg width="247.3302008819206" viewBox="-1.58 -37.86 57.97 40.86" height="173.04" data-palette-color="#ff4057"><path d="M11.72-11.16L10.57 0 4.3 0 1.42-34.86 4.83-34.86 5.76-21.29 6.96-3.13 8.13-3.13 9.35-21.29 10.69-34.62 16.72-34.62 18.14-21.29 19.21-3.13 20.39-3.13 21.63-21.29 22.63-34.86 26-34.86 23.07 0 16.82 0 15.63-11.16 14.38-31.62 13.04-31.62 11.72-11.16ZM39.11-11.16L37.96 0 31.69 0 28.81-34.86 32.22-34.86 33.15-21.29 34.35-3.13 35.52-3.13 36.74-21.29 38.08-34.62 44.11-34.62 45.53-21.29 46.6-3.13 47.78-3.13 49.02-21.29 50.02-34.86 53.39-34.86 50.46 0 44.21 0 43.02-11.16 41.77-31.62 40.43-31.62 39.11-11.16Z" opacity="1" transform="matrix(1,0,0,1,0,0)" fill="#ffffff" class="wordmark-text-0" data-fill-palette-color="primary" id="text-0"></path></svg></g></svg></g></svg></g></svg></g><g></g></svg></g></svg></g></svg></g></svg></g><defs></defs></svg><rect width="395.52" height="247.2" fill="none" stroke="none" visibility="hidden"></rect></g></svg></g></svg>